<mxfile host="app.diagrams.net" agent="Mozilla/5.0 (Macintosh; Intel Mac OS X 10.15; rv:140.0) Gecko/20100101 Firefox/140.0" version="28.0.7">
  <diagram name="Page-1" id="PD9nYvYlj7LBuP5hInSz">
    <mxGraphModel dx="1186" dy="688" grid="1" gridSize="10" guides="1" tooltips="1" connect="1" arrows="1" fold="1" page="1" pageScale="1" pageWidth="850" pageHeight="1100" math="0" shadow="0">
      <root>
        <mxCell id="0" />
        <mxCell id="1" parent="0" />
        <mxCell id="Pu8Nskk0opoJuoPIRtYy-1" value="Management Account" style="sketch=0;outlineConnect=0;fontColor=#000000;gradientColor=none;fillColor=#E7157B;strokeColor=#F0F6FC;dashed=0;verticalLabelPosition=bottom;verticalAlign=top;align=center;html=1;fontSize=12;fontStyle=1;aspect=fixed;pointerEvents=1;shape=mxgraph.aws4.organizations_management_account2;labelBackgroundColor=default;fontFamily=Lucida Console;" vertex="1" parent="1">
          <mxGeometry x="320" y="40" width="80" height="80" as="geometry" />
        </mxCell>
        <mxCell id="Pu8Nskk0opoJuoPIRtYy-2" style="edgeStyle=orthogonalEdgeStyle;rounded=0;orthogonalLoop=1;jettySize=auto;html=1;endArrow=none;startFill=0;fontFamily=Lucida Console;" edge="1" parent="1" source="Pu8Nskk0opoJuoPIRtYy-4" target="Pu8Nskk0opoJuoPIRtYy-33">
          <mxGeometry relative="1" as="geometry">
            <Array as="points">
              <mxPoint x="140" y="270" />
              <mxPoint x="80" y="270" />
            </Array>
          </mxGeometry>
        </mxCell>
        <mxCell id="Pu8Nskk0opoJuoPIRtYy-3" style="edgeStyle=orthogonalEdgeStyle;rounded=0;orthogonalLoop=1;jettySize=auto;html=1;endArrow=none;startFill=0;fontFamily=Lucida Console;" edge="1" parent="1" source="Pu8Nskk0opoJuoPIRtYy-4" target="Pu8Nskk0opoJuoPIRtYy-32">
          <mxGeometry relative="1" as="geometry">
            <Array as="points">
              <mxPoint x="140" y="270" />
              <mxPoint x="200" y="270" />
            </Array>
          </mxGeometry>
        </mxCell>
        <mxCell id="Pu8Nskk0opoJuoPIRtYy-4" value="Security OU" style="sketch=0;outlineConnect=0;fontColor=#000000;gradientColor=none;fillColor=#E7157B;strokeColor=#F0F6FC;dashed=0;verticalLabelPosition=bottom;verticalAlign=top;align=center;html=1;fontSize=12;fontStyle=1;aspect=fixed;pointerEvents=1;shape=mxgraph.aws4.organizations_organizational_unit2;labelBackgroundColor=default;fontFamily=Lucida Console;" vertex="1" parent="1">
          <mxGeometry x="100" y="160" width="80" height="80" as="geometry" />
        </mxCell>
        <mxCell id="Pu8Nskk0opoJuoPIRtYy-5" style="edgeStyle=orthogonalEdgeStyle;rounded=0;orthogonalLoop=1;jettySize=auto;html=1;endArrow=none;startFill=0;fontFamily=Lucida Console;" edge="1" parent="1" source="Pu8Nskk0opoJuoPIRtYy-7" target="Pu8Nskk0opoJuoPIRtYy-27">
          <mxGeometry relative="1" as="geometry">
            <Array as="points">
              <mxPoint x="480" y="270" />
              <mxPoint x="420" y="270" />
            </Array>
          </mxGeometry>
        </mxCell>
        <mxCell id="Pu8Nskk0opoJuoPIRtYy-6" style="edgeStyle=orthogonalEdgeStyle;rounded=0;orthogonalLoop=1;jettySize=auto;html=1;endArrow=none;startFill=0;fontFamily=Lucida Console;" edge="1" parent="1" source="Pu8Nskk0opoJuoPIRtYy-7" target="Pu8Nskk0opoJuoPIRtYy-26">
          <mxGeometry relative="1" as="geometry">
            <Array as="points">
              <mxPoint x="480" y="270" />
              <mxPoint x="540" y="270" />
            </Array>
          </mxGeometry>
        </mxCell>
        <mxCell id="Pu8Nskk0opoJuoPIRtYy-7" value="Infrastructure OU" style="sketch=0;outlineConnect=0;fontColor=#000000;gradientColor=none;fillColor=#E7157B;strokeColor=#F0F6FC;dashed=0;verticalLabelPosition=bottom;verticalAlign=top;align=center;html=1;fontSize=12;fontStyle=1;aspect=fixed;pointerEvents=1;shape=mxgraph.aws4.organizations_organizational_unit2;labelBackgroundColor=default;fontFamily=Lucida Console;" vertex="1" parent="1">
          <mxGeometry x="440" y="160" width="80" height="80" as="geometry" />
        </mxCell>
        <mxCell id="Pu8Nskk0opoJuoPIRtYy-8" value="Network prd" style="sketch=0;outlineConnect=0;fontColor=#000000;gradientColor=none;fillColor=#E7157B;strokeColor=#F0F6FC;dashed=0;verticalLabelPosition=bottom;verticalAlign=top;align=center;html=1;fontSize=12;fontStyle=1;aspect=fixed;pointerEvents=1;shape=mxgraph.aws4.organizations_account2;labelBackgroundColor=default;fontFamily=Lucida Console;" vertex="1" parent="1">
          <mxGeometry x="500" y="400" width="80" height="80" as="geometry" />
        </mxCell>
        <mxCell id="Pu8Nskk0opoJuoPIRtYy-9" value="Shared Services prd" style="sketch=0;outlineConnect=0;fontColor=#000000;gradientColor=none;fillColor=#E7157B;strokeColor=#F0F6FC;dashed=0;verticalLabelPosition=bottom;verticalAlign=top;align=center;html=1;fontSize=12;fontStyle=1;aspect=fixed;pointerEvents=1;shape=mxgraph.aws4.organizations_account2;labelBackgroundColor=default;fontFamily=Lucida Console;" vertex="1" parent="1">
          <mxGeometry x="620" y="400" width="80" height="80" as="geometry" />
        </mxCell>
        <mxCell id="Pu8Nskk0opoJuoPIRtYy-10" style="edgeStyle=orthogonalEdgeStyle;rounded=0;orthogonalLoop=1;jettySize=auto;html=1;endArrow=none;endFill=0;fontFamily=Lucida Console;" edge="1" parent="1" source="Pu8Nskk0opoJuoPIRtYy-12" target="Pu8Nskk0opoJuoPIRtYy-13">
          <mxGeometry relative="1" as="geometry">
            <Array as="points">
              <mxPoint x="820" y="270" />
              <mxPoint x="760" y="270" />
            </Array>
          </mxGeometry>
        </mxCell>
        <mxCell id="Pu8Nskk0opoJuoPIRtYy-11" style="edgeStyle=orthogonalEdgeStyle;rounded=0;orthogonalLoop=1;jettySize=auto;html=1;endArrow=none;endFill=0;fontFamily=Lucida Console;" edge="1" parent="1" source="Pu8Nskk0opoJuoPIRtYy-12" target="Pu8Nskk0opoJuoPIRtYy-16">
          <mxGeometry relative="1" as="geometry">
            <Array as="points">
              <mxPoint x="820" y="270" />
              <mxPoint x="880" y="270" />
            </Array>
          </mxGeometry>
        </mxCell>
        <mxCell id="Pu8Nskk0opoJuoPIRtYy-12" value="&lt;div&gt;Workloads OU&lt;/div&gt;" style="sketch=0;outlineConnect=0;fontColor=#000000;gradientColor=none;fillColor=#E7157B;strokeColor=#F0F6FC;dashed=0;verticalLabelPosition=bottom;verticalAlign=top;align=center;html=1;fontSize=12;fontStyle=1;aspect=fixed;pointerEvents=1;shape=mxgraph.aws4.organizations_organizational_unit2;labelBackgroundColor=default;fontFamily=Lucida Console;" vertex="1" parent="1">
          <mxGeometry x="780" y="160" width="80" height="80" as="geometry" />
        </mxCell>
        <mxCell id="Pu8Nskk0opoJuoPIRtYy-13" value="dev | tst | stg OU" style="sketch=0;outlineConnect=0;fontColor=#000000;gradientColor=none;fillColor=#E7157B;strokeColor=#F0F6FC;dashed=0;verticalLabelPosition=bottom;verticalAlign=top;align=center;html=1;fontSize=12;fontStyle=1;aspect=fixed;pointerEvents=1;shape=mxgraph.aws4.organizations_organizational_unit2;labelBackgroundColor=default;fontFamily=Lucida Console;" vertex="1" parent="1">
          <mxGeometry x="720" y="280" width="80" height="80" as="geometry" />
        </mxCell>
        <mxCell id="Pu8Nskk0opoJuoPIRtYy-14" style="edgeStyle=orthogonalEdgeStyle;rounded=0;orthogonalLoop=1;jettySize=auto;html=1;endArrow=none;startFill=0;fontFamily=Lucida Console;" edge="1" parent="1" source="Pu8Nskk0opoJuoPIRtYy-16" target="Pu8Nskk0opoJuoPIRtYy-22">
          <mxGeometry relative="1" as="geometry">
            <Array as="points">
              <mxPoint x="880" y="420" />
              <mxPoint x="880" y="420" />
            </Array>
          </mxGeometry>
        </mxCell>
        <mxCell id="Pu8Nskk0opoJuoPIRtYy-16" value="prd OU" style="sketch=0;outlineConnect=0;fontColor=#000000;gradientColor=none;fillColor=#E7157B;strokeColor=#F0F6FC;dashed=0;verticalLabelPosition=bottom;verticalAlign=top;align=center;html=1;fontSize=12;fontStyle=1;aspect=fixed;pointerEvents=1;shape=mxgraph.aws4.organizations_organizational_unit2;labelBackgroundColor=default;fontFamily=Lucida Console;" vertex="1" parent="1">
          <mxGeometry x="840" y="280" width="80" height="80" as="geometry" />
        </mxCell>
        <mxCell id="Pu8Nskk0opoJuoPIRtYy-17" style="edgeStyle=orthogonalEdgeStyle;rounded=0;orthogonalLoop=1;jettySize=auto;html=1;strokeColor=#000000;endArrow=none;endFill=0;labelBackgroundColor=default;fontColor=#000000;fontStyle=1;fontFamily=Lucida Console;" edge="1" parent="1" source="Pu8Nskk0opoJuoPIRtYy-21" target="Pu8Nskk0opoJuoPIRtYy-7">
          <mxGeometry relative="1" as="geometry" />
        </mxCell>
        <mxCell id="Pu8Nskk0opoJuoPIRtYy-18" style="edgeStyle=orthogonalEdgeStyle;rounded=0;orthogonalLoop=1;jettySize=auto;html=1;strokeColor=#000000;endArrow=none;endFill=0;labelBackgroundColor=default;fontColor=#000000;fontStyle=1;fontFamily=Lucida Console;" edge="1" parent="1" source="Pu8Nskk0opoJuoPIRtYy-21" target="Pu8Nskk0opoJuoPIRtYy-4">
          <mxGeometry relative="1" as="geometry">
            <Array as="points">
              <mxPoint x="480" y="150" />
              <mxPoint x="180" y="150" />
            </Array>
          </mxGeometry>
        </mxCell>
        <mxCell id="Pu8Nskk0opoJuoPIRtYy-19" style="edgeStyle=orthogonalEdgeStyle;rounded=0;orthogonalLoop=1;jettySize=auto;html=1;strokeColor=#000000;endArrow=none;endFill=0;labelBackgroundColor=default;fontColor=#000000;fontStyle=1;fontFamily=Lucida Console;" edge="1" parent="1" source="Pu8Nskk0opoJuoPIRtYy-21" target="Pu8Nskk0opoJuoPIRtYy-1">
          <mxGeometry relative="1" as="geometry" />
        </mxCell>
        <mxCell id="Pu8Nskk0opoJuoPIRtYy-20" style="edgeStyle=orthogonalEdgeStyle;rounded=0;orthogonalLoop=1;jettySize=auto;html=1;endArrow=none;endFill=0;fontFamily=Lucida Console;" edge="1" parent="1" source="Pu8Nskk0opoJuoPIRtYy-21" target="Pu8Nskk0opoJuoPIRtYy-12">
          <mxGeometry relative="1" as="geometry">
            <Array as="points">
              <mxPoint x="480" y="150" />
              <mxPoint x="820" y="150" />
            </Array>
          </mxGeometry>
        </mxCell>
        <mxCell id="Pu8Nskk0opoJuoPIRtYy-21" value="Root" style="sketch=0;outlineConnect=0;fontColor=#000000;gradientColor=none;fillColor=#E7157B;strokeColor=#F0F6FC;dashed=0;verticalLabelPosition=bottom;verticalAlign=top;align=center;html=1;fontSize=12;fontStyle=1;aspect=fixed;pointerEvents=1;shape=mxgraph.aws4.organizations_organizational_unit2;labelBackgroundColor=default;fontFamily=Lucida Console;" vertex="1" parent="1">
          <mxGeometry x="440" y="40" width="80" height="80" as="geometry" />
        </mxCell>
        <mxCell id="Pu8Nskk0opoJuoPIRtYy-22" value="Workload N prd" style="sketch=0;outlineConnect=0;fontColor=#000000;gradientColor=none;fillColor=#E7157B;strokeColor=#F0F6FC;dashed=0;verticalLabelPosition=bottom;verticalAlign=top;align=center;html=1;fontSize=12;fontStyle=1;aspect=fixed;pointerEvents=1;shape=mxgraph.aws4.organizations_account2;labelBackgroundColor=default;fontFamily=Lucida Console;" vertex="1" parent="1">
          <mxGeometry x="840" y="400" width="80" height="80" as="geometry" />
        </mxCell>
        <mxCell id="Pu8Nskk0opoJuoPIRtYy-35" style="edgeStyle=orthogonalEdgeStyle;rounded=0;orthogonalLoop=1;jettySize=auto;html=1;endArrow=none;endFill=0;" edge="1" parent="1" source="Pu8Nskk0opoJuoPIRtYy-26" target="Pu8Nskk0opoJuoPIRtYy-34">
          <mxGeometry relative="1" as="geometry">
            <Array as="points">
              <mxPoint x="540" y="390" />
              <mxPoint x="420" y="390" />
            </Array>
          </mxGeometry>
        </mxCell>
        <mxCell id="Pu8Nskk0opoJuoPIRtYy-36" style="edgeStyle=orthogonalEdgeStyle;rounded=0;orthogonalLoop=1;jettySize=auto;html=1;endArrow=none;endFill=0;" edge="1" parent="1" source="Pu8Nskk0opoJuoPIRtYy-26" target="Pu8Nskk0opoJuoPIRtYy-9">
          <mxGeometry relative="1" as="geometry">
            <Array as="points">
              <mxPoint x="540" y="390" />
              <mxPoint x="660" y="390" />
            </Array>
          </mxGeometry>
        </mxCell>
        <mxCell id="Pu8Nskk0opoJuoPIRtYy-37" style="edgeStyle=orthogonalEdgeStyle;rounded=0;orthogonalLoop=1;jettySize=auto;html=1;endArrow=none;endFill=0;" edge="1" parent="1" source="Pu8Nskk0opoJuoPIRtYy-26" target="Pu8Nskk0opoJuoPIRtYy-8">
          <mxGeometry relative="1" as="geometry" />
        </mxCell>
        <mxCell id="Pu8Nskk0opoJuoPIRtYy-26" value="prd OU" style="sketch=0;outlineConnect=0;fontColor=#000000;gradientColor=none;fillColor=#E7157B;strokeColor=#F0F6FC;dashed=0;verticalLabelPosition=bottom;verticalAlign=top;align=center;html=1;fontSize=12;fontStyle=1;aspect=fixed;pointerEvents=1;shape=mxgraph.aws4.organizations_organizational_unit2;labelBackgroundColor=default;fontFamily=Lucida Console;" vertex="1" parent="1">
          <mxGeometry x="500" y="280" width="80" height="80" as="geometry" />
        </mxCell>
        <mxCell id="Pu8Nskk0opoJuoPIRtYy-27" value="dev | tst | stg OU" style="sketch=0;outlineConnect=0;fontColor=#000000;gradientColor=none;fillColor=#E7157B;strokeColor=#F0F6FC;dashed=0;verticalLabelPosition=bottom;verticalAlign=top;align=center;html=1;fontSize=12;fontStyle=1;aspect=fixed;pointerEvents=1;shape=mxgraph.aws4.organizations_organizational_unit2;labelBackgroundColor=default;fontFamily=Lucida Console;" vertex="1" parent="1">
          <mxGeometry x="380" y="280" width="80" height="80" as="geometry" />
        </mxCell>
        <mxCell id="Pu8Nskk0opoJuoPIRtYy-28" value="Log Archive prd" style="sketch=0;outlineConnect=0;fontColor=#000000;gradientColor=none;fillColor=#E7157B;strokeColor=#F0F6FC;dashed=0;verticalLabelPosition=bottom;verticalAlign=top;align=center;html=1;fontSize=12;fontStyle=1;aspect=fixed;pointerEvents=1;shape=mxgraph.aws4.organizations_account2;labelBackgroundColor=default;fontFamily=Lucida Console;" vertex="1" parent="1">
          <mxGeometry x="100" y="400" width="80" height="80" as="geometry" />
        </mxCell>
        <mxCell id="Pu8Nskk0opoJuoPIRtYy-29" value="Security Tooling prd" style="sketch=0;outlineConnect=0;fontColor=#000000;gradientColor=none;fillColor=#E7157B;strokeColor=#F0F6FC;dashed=0;verticalLabelPosition=bottom;verticalAlign=top;align=center;html=1;fontSize=12;fontStyle=1;aspect=fixed;pointerEvents=1;shape=mxgraph.aws4.organizations_account2;labelBackgroundColor=default;fontFamily=Lucida Console;" vertex="1" parent="1">
          <mxGeometry x="220" y="400" width="80" height="80" as="geometry" />
        </mxCell>
        <mxCell id="Pu8Nskk0opoJuoPIRtYy-30" style="edgeStyle=orthogonalEdgeStyle;rounded=0;orthogonalLoop=1;jettySize=auto;html=1;endArrow=none;startFill=0;fontFamily=Lucida Console;" edge="1" parent="1" source="Pu8Nskk0opoJuoPIRtYy-32" target="Pu8Nskk0opoJuoPIRtYy-28">
          <mxGeometry relative="1" as="geometry">
            <Array as="points">
              <mxPoint x="200" y="390" />
              <mxPoint x="140" y="390" />
            </Array>
          </mxGeometry>
        </mxCell>
        <mxCell id="Pu8Nskk0opoJuoPIRtYy-31" style="edgeStyle=orthogonalEdgeStyle;rounded=0;orthogonalLoop=1;jettySize=auto;html=1;endArrow=none;startFill=0;fontFamily=Lucida Console;" edge="1" parent="1" source="Pu8Nskk0opoJuoPIRtYy-32" target="Pu8Nskk0opoJuoPIRtYy-29">
          <mxGeometry relative="1" as="geometry">
            <Array as="points">
              <mxPoint x="200" y="390" />
              <mxPoint x="260" y="390" />
            </Array>
          </mxGeometry>
        </mxCell>
        <mxCell id="Pu8Nskk0opoJuoPIRtYy-32" value="prd OU" style="sketch=0;outlineConnect=0;fontColor=#000000;gradientColor=none;fillColor=#E7157B;strokeColor=#F0F6FC;dashed=0;verticalLabelPosition=bottom;verticalAlign=top;align=center;html=1;fontSize=12;fontStyle=1;aspect=fixed;pointerEvents=1;shape=mxgraph.aws4.organizations_organizational_unit2;labelBackgroundColor=default;fontFamily=Lucida Console;" vertex="1" parent="1">
          <mxGeometry x="160" y="280" width="80" height="80" as="geometry" />
        </mxCell>
        <mxCell id="Pu8Nskk0opoJuoPIRtYy-33" value="dev | tst | stg OU" style="sketch=0;outlineConnect=0;fontColor=#000000;gradientColor=none;fillColor=#E7157B;strokeColor=#F0F6FC;dashed=0;verticalLabelPosition=bottom;verticalAlign=top;align=center;html=1;fontSize=12;fontStyle=1;aspect=fixed;pointerEvents=1;shape=mxgraph.aws4.organizations_organizational_unit2;labelBackgroundColor=default;fontFamily=Lucida Console;" vertex="1" parent="1">
          <mxGeometry x="40" y="280" width="80" height="80" as="geometry" />
        </mxCell>
        <mxCell id="Pu8Nskk0opoJuoPIRtYy-34" value="Identity prd" style="sketch=0;outlineConnect=0;fontColor=#000000;gradientColor=none;fillColor=#E7157B;strokeColor=#F0F6FC;dashed=0;verticalLabelPosition=bottom;verticalAlign=top;align=center;html=1;fontSize=12;fontStyle=1;aspect=fixed;pointerEvents=1;shape=mxgraph.aws4.organizations_account2;labelBackgroundColor=default;fontFamily=Lucida Console;" vertex="1" parent="1">
          <mxGeometry x="380" y="400" width="80" height="80" as="geometry" />
        </mxCell>
      </root>
    </mxGraphModel>
  </diagram>
</mxfile>
